# xmcd
#
# Track frame offsets:
#	150
#	21654
#	57375
#	68941
#	89956
#	127582
#	155452
#	197551
#	222416
#	255956
#	284532
#
# Disc length: 4175 seconds
#
# Revision: 1
# Processed by: cddbd v1.5.2PL0 Copyright (c) Steve Scherf et al.
# Submitted via: audiograbber 1.83.01
#
DISCID=a6104d0b
DTITLE=Grateful Dead - 78-11-13A Boston Music Hall, Boston MA
DYEAR=1900
DGENRE=
TTITLE0=Promised Land
TTITLE1=They Love Each Other
TTITLE2=Mama Tried
TTITLE3=Mexicali Blues
TTITLE4=Peggy-O
TTITLE5=Cassidy
TTITLE6=Tennessee Jed
TTITLE7=New Minglewood Blues
TTITLE8=Stagger Lee
TTITLE9=Jack Straw
TTITLE10=US Blues
EXTD=
EXTT0=
EXTT1=
EXTT2=
EXTT3=
EXTT4=
EXTT5=
EXTT6=
EXTT7=
EXTT8=
EXTT9=
EXTT10=
PLAYORDER=
